
        <svg xmlns="http://www.w3.org/2000/svg" xmlns:xlink="http://www.w3.org/1999/xlink" version="1.1" width="3196.72131147541" height="1030.811622546344" viewBox="0 0 3196.72131147541 1030.811622546344">
			
			<g transform="scale(9.836065573770492) translate(10, 10)">
				<defs id="SvgjsDefs1547"><linearGradient id="SvgjsLinearGradient1552"><stop id="SvgjsStop1553" stop-color="#b88746" offset="0"/><stop id="SvgjsStop1554" stop-color="#fdf5a6" offset="1"/></linearGradient></defs><g id="SvgjsG1548" featureKey="tOsHRK-0" transform="matrix(1.0599897703193122,0,0,1.0599897703193122,-10.49948851596561,-10.599897703193122)" fill="#000"><path xmlns="http://www.w3.org/2000/svg" d="M84.2021484,40.0859375l-13.28125-7.2226562c-1.5644531-0.8515625-2.84375-2.125-3.7001953-3.6826172l-7.3330078-13.3330078  C57.875,12.1855469,54.1777344,10,50,10s-7.875,2.1855469-9.8876953,5.8476562l-7.3330078,13.3330078  c-0.8564453,1.5576172-2.1357422,2.8310547-3.6992188,3.6816406l-13.2822266,7.2246094  C12.1083984,42.09375,9.9052734,45.7998047,9.9052734,50s2.203125,7.90625,5.8925781,9.9140625l13.28125,7.2226562  c1.5644531,0.8515625,2.84375,2.125,3.7001953,3.6826172l7.3330078,13.3330078C42.125,87.8144531,45.8222656,90,50,90  s7.875-2.1855469,9.8876953-5.8476562l7.3330078-13.3330078c0.8564453-1.5576172,2.1357422-2.8310547,3.6992188-3.6816406  l13.2822266-7.2246094C87.8916016,57.90625,90.0947266,54.2001953,90.0947266,50S87.8916016,42.09375,84.2021484,40.0859375z   M83.2470703,58.15625l-13.2832031,7.2246094c-1.9003906,1.0341797-3.4550781,2.5820312-4.4951172,4.4755859l-7.3330078,13.3330078  C56.4785156,86.2011719,53.4375,88,50,88s-6.4785156-1.7988281-8.1357422-4.8105469L34.53125,69.8564453  c-1.0400391-1.8935547-2.5947266-3.4414062-4.4960938-4.4765625l-13.2822266-7.2226562  C13.7177734,56.5048828,11.9052734,53.4560547,11.9052734,50s1.8125-6.5048828,4.8476562-8.15625l13.2832031-7.2246094  c1.9003906-1.0341797,3.4550781-2.5820312,4.4951172-4.4755859l7.3330078-13.3330078C43.5214844,13.7988281,46.5625,12,50,12  s6.4785156,1.7988281,8.1357422,4.8105469L65.46875,30.1435547c1.0400391,1.8935547,2.5947266,3.4414062,4.4960938,4.4765625  l13.2822266,7.2226562C86.2822266,43.4951172,88.0947266,46.5439453,88.0947266,50S86.2822266,56.5048828,83.2470703,58.15625z"/></g><g id="SvgjsG1549" featureKey="dVtZHI-0" transform="matrix(2.454590212164222,0,0,2.454590212164222,105,12.592538062234814)" fill="#000"><path d="M0 10.94 l0.000039062 9.06 l3.84 0 c1.1467 0 2.0534 -0.40666 2.72 -1.22 s1 -1.8667 1 -3.16 c0 -0.34666 -0.04334 -0.74332 -0.13 -1.19 s-0.23332 -0.88 -0.43998 -1.3 s-0.48666 -0.8 -0.84 -1.14 s-0.81 -0.57666 -1.37 -0.71 c0.56 -0.34666 0.96666 -0.81 1.22 -1.39 s0.38 -1.19 0.38 -1.83 c0 -1.2267 -0.34 -2.17 -1.02 -2.83 s-1.6067 -0.99 -2.78 -0.99 l-2.58 0 l0 6.22 l0.7 0 l-0.02 -5.4 l1.96 0 c1.1067 0 1.8867 0.29 2.34 0.87 s0.68 1.29 0.68 2.13 c0 0.90666 -0.20666 1.61 -0.62 2.11 s-0.98 0.75 -1.7 0.75 l-2.62 0 l0.44 0.88 l2.68 0 c0.54666 0 1.0133 0.12334 1.4 0.37 s0.70332 0.55666 0.94998 0.93 s0.43 0.79334 0.55 1.26 s0.18 0.92 0.18 1.36 c0 0.42666 -0.06 0.84666 -0.18 1.26 s-0.3 0.78334 -0.54 1.11 s-0.55334 0.59 -0.94 0.79 s-0.84666 0.3 -1.38 0.3 l-3.2 0 l0.02 -8.24 l-0.7 0 z M18.9 4.26 l0 10.64 c0 1.4 -0.37 2.48 -1.11 3.24 s-1.6233 1.1733 -2.65 1.24 l0 0.25 l0 0.07 l0 0.3 c1.28 -0.08 2.3066 -0.55334 3.08 -1.42 s1.16 -2.0934 1.16 -3.68 l0 -10.64 l-0.48 0 z M14.4 19.39998 c-1.04 -0.08 -1.9067 -0.5 -2.6 -1.26 s-1.04 -1.84 -1.04 -3.24 l0 -10.64 l-0.6 0 l0 10.64 c0 1.6 0.38334 2.83 1.15 3.69 s1.7967 1.33 3.09 1.41 l0 -0.29 l0 -0.31 z M23.78 20 c0.58666 0 1.1334 -0.06664 1.6401 -0.19998 l-0.16 -0.6 c-0.45334 0.12 -0.94668 0.18 -1.48 0.18 l-1.18 0 l0 -14.46 l1.18 0 c0.86666 0 1.6633 0.17 2.39 0.51 s1.3533 0.81 1.88 1.41 s0.94 1.3233 1.24 2.17 s0.45 1.7767 0.45 2.79 l0 0.42 c0 0.74666 -0.1 1.48 -0.3 2.2 s-0.47334 1.3833 -0.82 1.99 s-0.75332 1.1367 -1.22 1.59 s-0.96 0.78 -1.48 0.98 l0.24 0.58 c0.58666 -0.24 1.1333 -0.60334 1.64 -1.09 s0.95 -1.0567 1.33 -1.71 s0.68 -1.37 0.9 -2.15 s0.33 -1.5767 0.33 -2.39 l0 -0.42 c0 -1.0933 -0.16666 -2.0966 -0.5 -3.01 s-0.79334 -1.7033 -1.38 -2.37 s-1.28 -1.1867 -2.08 -1.56 s-1.6733 -0.56 -2.62 -0.56 l-1.8 0 l0 15.7 l1.8 0 z M37.64 20 l0.06 -0.64002 c-0.76 -0.08 -1.4033 -0.33666 -1.93 -0.77 s-0.95 -0.97 -1.27 -1.61 s-0.55 -1.3533 -0.69 -2.14 s-0.21 -1.5733 -0.21 -2.36 l0 -0.74 c0 -0.85334 0.08666 -1.69 0.26 -2.51 s0.44 -1.55 0.8 -2.19 s0.82334 -1.1567 1.39 -1.55 s1.2433 -0.59 2.03 -0.59 c0.68 0 1.2 0.08666 1.56 0.26 s0.68666 0.37334 0.98 0.6 l0.4 -0.5 c-0.38666 -0.30666 -0.79666 -0.55 -1.23 -0.73 s-1.0033 -0.27 -1.71 -0.27 c-1.5333 0 -2.77 0.68334 -3.71 2.05 s-1.41 3.1766 -1.41 5.43 l0 0.74 c0 2.16 0.41666 3.9134 1.25 5.26 s1.9767 2.1 3.43 2.26 z M38.74 19.999980469 c1.1333 -0.08 2.1134 -0.46 2.94 -1.14 l0.12 -0.1 l0 -5.34 l-3.94 0 l0 0.66 l3.3 0 l0 4.38 c-0.69334 0.52 -1.5133 0.82 -2.46 0.9 z M44.96 14.16 l0 -9.36 l4.8 0 l0 -0.56 l-5.36 0 l0 9.92 l0.56 0 z M49.96 20 l0 -0.54 l-5 0 l0 -4.14 l0.8 0 l0 -0.54 l-1.36 0 l0 5.22 l5.56 0 z M58.42 4.5 l-0.000019531 -0.26 l-5.86 0 l0 0.64 l3.38 0 l0 15.12 l0.7 0 l0 -15.12 l1.8 0 c-0.02666 -0.21334 -0.03332 -0.34 -0.01998 -0.38 z M58.940000000000005 4.24 l0 0.64 l1.1 0 l0 -0.64 l-1.1 0 z M72.98 6.140000000000001 c0 0.08 0.23666 0.84334 0.71 2.29 s0.99 3.03 1.55 4.75 s1.3133 3.9934 2.26 6.82 l0.86 0 l-5.3 -15.76 l-0.16 0 l-5.26 15.76 l0.82 0 z M72.62 15.52 l-0.72 0 l1.2 4.48 l0.72 0 z M80.96000000000001 4.24 l0 15.76 l0.52 0 l0 -15.76 l-0.52 0 z"/></g>
			</g>
		</svg>
	